<svg xmlns="http://www.w3.org/2000/svg" viewBox="0 0 675.98 124.8"><defs><style>.cls-1{fill:#fff;stroke:#fff;stroke-miterlimit:10;stroke-width:0.95px;}</style></defs>
<g id="Layer_2" data-name="Layer 2"><g id="Layer_1-2" data-name="Layer 1">
    <path class="cls-1" d="M4.64,88.07l.13-.14a21,21,0,0,0,1.65-1.44,21.41,21.41,0,0,0,1.82-2,18,18,0,0,0,1.54-2.12,3.49,3.49,0,0,0,.62-1.87l.29-14.88A14.63,14.63,0,0,1,5,64.91a6.43,6.43,0,0,1-3.79-4.19,12.58,12.58,0,0,1-.68-3l1-.39A5,5,0,0,0,3.26,59a6.92,6.92,0,0,0,2.31.82,12.87,12.87,0,0,0,2.66.15,25.31,25.31,0,0,0,2.6-.24L11.6,14.8,55,64.45a4,4,0,0,0,1.52,1.16,10.84,10.84,0,0,0,4.11,1,12.73,12.73,0,0,0,1.71,0l.68.84L46.22,73.65l-.57-.79a5.68,5.68,0,0,0,1.39-2,3.13,3.13,0,0,0,0-2.33,14.06,14.06,0,0,0-3.61-5.76,10.89,10.89,0,0,0-4.82-2.54A15.31,15.31,0,0,0,33,60a45.29,45.29,0,0,0-6,1.26c-2,.57-4,1.19-5.86,1.87a49.4,49.4,0,0,1-5.38,1.6L15.68,79.3a1.45,1.45,0,0,0,.69,1.34,5.1,5.1,0,0,0,1.68.73,12.76,12.76,0,0,0,1.91.34l1.52.17.09,1L4.68,89.15Zm30.27-34L16.37,32.72l-.53,25.73q2.3-.68,4.64-1.5c1.56-.55,3.15-1.06,4.77-1.51s3.23-.83,4.83-1.12A19,19,0,0,1,34.91,54.07Z"/>
    <path class="cls-1" d="M87.3,61.66,90.94,9.51A4.62,4.62,0,0,0,89.77,6a8,8,0,0,0-3.14-2.23l.06-.94,22.59,1.58A40,40,0,0,1,117,5.76a23.14,23.14,0,0,1,6.94,3.09,15.36,15.36,0,0,1,4.86,5.22,13.44,13.44,0,0,1,1.47,7.68,14,14,0,0,1-1.34,5.09,18.51,18.51,0,0,1-3,4.46,21.65,21.65,0,0,1-4.15,3.57,21.48,21.48,0,0,1-4.79,2.4,17.15,17.15,0,0,1,3.3,2.42,7.56,7.56,0,0,1,2,3.69l4.3,18.2a14.91,14.91,0,0,0,1.2,3,13.94,13.94,0,0,0,1.87,2.74,11.81,11.81,0,0,0,2.25,2,4.65,4.65,0,0,0,2.29.89l-.07,1-7.16-.5A9.23,9.23,0,0,1,120.48,68a13,13,0,0,1-3-6.33c-.5-2.61-1-5.18-1.47-7.73s-1-5.12-1.48-7.72a10.88,10.88,0,0,0-2.33-5.26,7.33,7.33,0,0,0-5.28-2.21,7.87,7.87,0,0,0-4.92,1.2A5,5,0,0,0,99.58,44l-1,.19a6.35,6.35,0,0,1-.63-3.3q.28-4,2.88-5.58A10.48,10.48,0,0,1,107.13,34a13.75,13.75,0,0,0,5.53-.69,13.48,13.48,0,0,0,4.46-2.56,12.42,12.42,0,0,0,3.06-4,13.52,13.52,0,0,0,1.34-5.09c.3-4.21-.72-7.37-3.06-9.51s-5.6-3.34-9.81-3.64l-9-.63-3.8,54.38A4.57,4.57,0,0,0,97,65.72,7.84,7.84,0,0,0,100.14,68l-.07.94-17.9-1.25.07-.93a8,8,0,0,0,3.42-1.78A4.6,4.6,0,0,0,87.3,61.66Z"/>
    <path class="cls-1" d="M186,79.81a4.5,4.5,0,0,0,.33,3.59,8.69,8.69,0,0,0,2.5,2.91l-.28.9L171.44,82l.28-.89a9.51,9.51,0,0,0,3.66-1,4.49,4.49,0,0,0,2.33-2.77l15.17-49.41c-1.62-.74-3.23-1.44-4.84-2.12s-3.29-1.28-5-1.81a21.49,21.49,0,0,0-7-1,8.25,8.25,0,0,0-6,3l-1.47-.45a13.58,13.58,0,0,1,7.18-6.82,14.85,14.85,0,0,1,10.08-.21A58.47,58.47,0,0,1,193,21.2q3.57,1.64,7.08,3.29t7,3.28a57,57,0,0,0,7.29,2.77,24.2,24.2,0,0,0,2.48.63,15.46,15.46,0,0,0,2.67.33,9,9,0,0,0,2.59-.27,5.81,5.81,0,0,0,2.22-1.11l1,.3a9.48,9.48,0,0,1-2.3,4.12,7.39,7.39,0,0,1-3.36,1.92,10.81,10.81,0,0,1-4,.23,24.84,24.84,0,0,1-4.36-.94c-1.86-.57-3.65-1.21-5.4-1.92s-3.45-1.48-5.11-2.29Z"/>
    <path class="cls-1" d="M231.75,99.61l17.06-53.48a4.59,4.59,0,0,0-.32-3.64A8.08,8.08,0,0,0,246,39.57l.29-.89,38.82,12.39-2.75,10.87-1-.32a10.66,10.66,0,0,0-.24-2.18,14.15,14.15,0,0,0-.76-2.53,11.53,11.53,0,0,0-1.18-2.21,3,3,0,0,0-1.57-1.27L257.5,47l-6.76,21.16L265.8,73a2.81,2.81,0,0,0,1.87-.07,9.44,9.44,0,0,0,1.94-1,11,11,0,0,0,1.79-1.54,13.83,13.83,0,0,0,1.32-1.6l1,.31-5.11,16-1-.31a13.5,13.5,0,0,0-.15-2.07,10.81,10.81,0,0,0-.57-2.29,8.84,8.84,0,0,0-1-2,2.8,2.8,0,0,0-1.47-1.14l-15.06-4.81-9.61,30.12a40.65,40.65,0,0,1,4.66,3.37c1.52,1.26,3,2.51,4.59,3.75s3.14,2.39,4.77,3.45a21.42,21.42,0,0,0,5.14,2.45,8.66,8.66,0,0,0,8.63-1.74l1.25.58a18.11,18.11,0,0,1-2.71,3,14.79,14.79,0,0,1-3.41,2.27,12.38,12.38,0,0,1-3.91,1.13,9.8,9.8,0,0,1-4.16-.43,19.5,19.5,0,0,1-6-3.15c-1.84-1.43-3.7-2.93-5.55-4.51s-3.77-3.1-5.72-4.56a21.93,21.93,0,0,0-6.43-3.31,7.8,7.8,0,0,0-3-.38,5.6,5.6,0,0,0-2.73,1l-1.06-.34a14.33,14.33,0,0,1,3-4A6.15,6.15,0,0,1,231.75,99.61Z"/>
    <path class="cls-1" d="M300.07,117.36l-1-.11,2.15-15.06,1.1.11.05.35a26.61,26.61,0,0,0,1.61,6,18.33,18.33,0,0,0,3.12,5.17,16.82,16.82,0,0,0,4.68,3.75,16.07,16.07,0,0,0,6.13,1.83,16.48,16.48,0,0,0,5.57-.33,13.78,13.78,0,0,0,4.68-2.09,11.74,11.74,0,0,0,3.39-3.69,12.58,12.58,0,0,0,1.6-5.12,7.82,7.82,0,0,0-1.2-5.06,20.66,20.66,0,0,0-3.76-4.38,39.28,39.28,0,0,0-4.9-3.73c-1.74-1.12-3.26-2.12-4.54-3q-2.91-1.85-5.65-4a31.39,31.39,0,0,1-4.81-4.58,18.17,18.17,0,0,1-3.18-5.39,14.23,14.23,0,0,1-.75-6.52A11.25,11.25,0,0,1,307.09,65,15.67,15.67,0,0,1,312.73,61a24.75,24.75,0,0,1,7.14-1.75,34.76,34.76,0,0,1,7.13,0,24.66,24.66,0,0,1,3.75.64,22,22,0,0,1,3.12,1c1,.42,2,.86,3,1.34l3.36,1.59.71-1.12,1,.1-1.53,14.87-1.1-.11-.05-.35A20.52,20.52,0,0,0,335,67.66q-3.15-3.63-9.69-4.31a14.78,14.78,0,0,0-4.36.2A11.32,11.32,0,0,0,317.08,65a10,10,0,0,0-2.85,2.72,8,8,0,0,0-1.39,3.93,7.16,7.16,0,0,0,.59,3.8,12.92,12.92,0,0,0,2.12,3.22,20,20,0,0,0,3,2.72q1.68,1.25,3.12,2.25,3.27,2.47,6.93,4.92a46.7,46.7,0,0,1,6.62,5.32,23,23,0,0,1,4.74,6.54,15.7,15.7,0,0,1,1.26,8.59,14.21,14.21,0,0,1-2.82,7.4,18.12,18.12,0,0,1-5.79,4.9,24.52,24.52,0,0,1-7.47,2.54,29.41,29.41,0,0,1-8,.29,27.94,27.94,0,0,1-9-2.47,23.58,23.58,0,0,1-7.48-5.4Z"/>
    <path class="cls-1" d="M379.56,122.14l.13-.14a19.64,19.64,0,0,0,1.68-1.41,24.24,24.24,0,0,0,1.86-1.92,19.09,19.09,0,0,0,1.57-2.1,3.5,3.5,0,0,0,.65-1.86L386,99.84A14.67,14.67,0,0,1,380.3,99a6.45,6.45,0,0,1-3.72-4.25,12.9,12.9,0,0,1-.63-3l1.05-.37A5.06,5.06,0,0,0,378.68,93a6.64,6.64,0,0,0,2.3.86,12.67,12.67,0,0,0,2.65.2,25.47,25.47,0,0,0,2.6-.2L387.77,49l42.56,50.38a3.87,3.87,0,0,0,1.5,1.19,11.12,11.12,0,0,0,4.09,1.05,13.36,13.36,0,0,0,1.71,0l.67.85-16.92,6-.55-.8a5.52,5.52,0,0,0,1.42-2,3.1,3.1,0,0,0,0-2.32,14.12,14.12,0,0,0-3.51-5.83A11,11,0,0,0,414,94.87a15.19,15.19,0,0,0-5.58-.29,45,45,0,0,0-6,1.16c-2,.53-4,1.12-5.9,1.77a46,46,0,0,1-5.4,1.5l-.39,14.55a1.44,1.44,0,0,0,.66,1.35,5.39,5.39,0,0,0,1.68.77,14.15,14.15,0,0,0,1.9.37l1.51.19.08,1-17,6ZM410.4,88.66,392.23,67l-1,25.72c1.54-.43,3.09-.9,4.66-1.43s3.16-1,4.8-1.42,3.24-.77,4.84-1A19,19,0,0,1,410.4,88.66Z"/>
    <path class="cls-1" d="M440.85,28.22l12.89-4.56,45.14,32.78L485.62,19a2.93,2.93,0,0,0-1.2-1.47,7.78,7.78,0,0,0-2-.94,13.31,13.31,0,0,0-2.26-.51A10.28,10.28,0,0,0,478,16l-.31-.88,16-5.68.31.89a11.9,11.9,0,0,0-1.58,1.42A15.21,15.21,0,0,0,491,13.57a7.61,7.61,0,0,0-1,2,2.94,2.94,0,0,0,0,1.9L510.41,75.2,452.93,33.92l16.42,46.39a2.93,2.93,0,0,0,1.2,1.47,7.26,7.26,0,0,0,2,.93,14.25,14.25,0,0,0,2.34.48,12.74,12.74,0,0,0,2.13.11l.31.89-16,5.67L461,89a10.26,10.26,0,0,0,1.62-1.43,15.9,15.9,0,0,0,1.48-1.84,7.61,7.61,0,0,0,1-2,2.94,2.94,0,0,0,0-1.9L448,33.66a7.24,7.24,0,0,0-1.63-2.82,5.53,5.53,0,0,0-2-1.34,6.59,6.59,0,0,0-1.87-.43c-.59,0-1.07-.07-1.45-.12Z"/>
    <path class="cls-1" d="M536.73,35.27A37,37,0,0,1,539,22.09a33.79,33.79,0,0,1,6.57-11A31.84,31.84,0,0,1,569.5.48a38.07,38.07,0,0,1,13.44,2.15A29.77,29.77,0,0,1,593.41,9a28.93,28.93,0,0,1,6.84,10,34.08,34.08,0,0,1,2.5,12.93,37,37,0,0,1-2.24,13.17,33.79,33.79,0,0,1-6.57,11,31.72,31.72,0,0,1-23.88,10.59,37.62,37.62,0,0,1-13.52-2.2,30.58,30.58,0,0,1-10.47-6.36,28.49,28.49,0,0,1-6.84-9.94A34.07,34.07,0,0,1,536.73,35.27ZM546,35a35.81,35.81,0,0,0,1.54,10.15A26.49,26.49,0,0,0,552,53.89a21.74,21.74,0,0,0,7.36,6,22.12,22.12,0,0,0,10.4,2.22,18.67,18.67,0,0,0,10.14-2.82,23.94,23.94,0,0,0,7.2-7.15,34,34,0,0,0,4.32-9.69,38.12,38.12,0,0,0,1.41-10.44,36,36,0,0,0-1.54-10.19,26.68,26.68,0,0,0-4.43-8.68A21.29,21.29,0,0,0,569.2,4.92a18.67,18.67,0,0,0-10.14,2.82,24.68,24.68,0,0,0-7.25,7.11,32.55,32.55,0,0,0-4.36,9.69A38.55,38.55,0,0,0,546,35Z"/>
    <path class="cls-1" d="M624.35,65.89l-1-.29,4.82-14.43,1.06.31v.35a26.05,26.05,0,0,0,.5,6.24,17.83,17.83,0,0,0,2.14,5.65,16.41,16.41,0,0,0,3.93,4.52,17.12,17.12,0,0,0,11.24,3.58,13.61,13.61,0,0,0,5-1.22,11.54,11.54,0,0,0,4-3,12.68,12.68,0,0,0,2.5-4.75,7.85,7.85,0,0,0-.27-5.19,20.86,20.86,0,0,0-2.91-5,39.64,39.64,0,0,0-4.16-4.55q-2.26-2.13-3.93-3.76-2.52-2.34-4.84-4.93a31.67,31.67,0,0,1-3.91-5.36,18.45,18.45,0,0,1-2.16-5.88,14.22,14.22,0,0,1,.43-6.55,11.33,11.33,0,0,1,3.89-6,15.77,15.77,0,0,1,6.26-2.85,25.12,25.12,0,0,1,7.34-.44,34.85,34.85,0,0,1,7,1.24,24.79,24.79,0,0,1,3.58,1.3,22.61,22.61,0,0,1,2.87,1.6c.9.58,1.82,1.21,2.75,1.86s1.94,1.38,3,2.17l.91-1,1,.29-4.17,14.35-1.07-.31,0-.35a20.52,20.52,0,0,0-2.55-10.22q-2.45-4.12-8.76-6a14.86,14.86,0,0,0-4.32-.59,11.24,11.24,0,0,0-4.06.78,9.9,9.9,0,0,0-3.29,2.16,8,8,0,0,0-2.08,3.62A7.17,7.17,0,0,0,645,27.1a12.72,12.72,0,0,0,1.5,3.55A19.79,19.79,0,0,0,649,33.86c.95,1,1.84,1.94,2.66,2.77q2.77,3,5.93,6.09a45.49,45.49,0,0,1,5.56,6.42,23.18,23.18,0,0,1,3.49,7.28,15.78,15.78,0,0,1-.3,8.68,14.09,14.09,0,0,1-4.11,6.77,18,18,0,0,1-6.57,3.78,24.18,24.18,0,0,1-7.81,1.16,29.4,29.4,0,0,1-7.9-1.14,28.22,28.22,0,0,1-8.38-4A23.55,23.55,0,0,1,625.15,65Z"/></g>
</g>
</svg>