<?xml version="1.0" encoding="UTF-8"?>
<svg width="119px" height="153px" viewBox="0 0 119 153" version="1.1" xmlns="http://www.w3.org/2000/svg" xmlns:xlink="http://www.w3.org/1999/xlink">
    <g id="Page-1" stroke="none" stroke-width="1" fill="none" fill-rule="evenodd">
        <g id="logo" transform="translate(-1.000000, -1.000000)" fill="#313638" fill-rule="nonzero">
            <path d="M119.34,65.14 C119.078481,64.0492149 118.881473,62.9439655 118.75,61.83 C118.274336,58.4650152 117.349421,55.1790452 116,52.06 C114.636223,48.9433805 112.417162,46.2770403 109.6,44.37 C104.68,40.95 98.32,39.28 90.69,39.54 L83.69,39.99 L84.44,38.91 C89.2,32.09 92.07,27.91 92.77,26.91 C96.13,21.78 97.77,16.91 97.64,12.32 C97.6980917,9.5036474 96.7635371,6.75662323 95,4.56 C93.1248871,2.14169454 90.1741148,0.808604538 87.12,1 L86.47,1 C79.87,1.18 72.82,3.67 65.53,8.4 C53.17,16.4 41.41,28.33 30.53,43.85 C20.23,58.76 13.53,71.85 10.68,82.85 C9.84996637,85.9303483 9.44620624,89.1099593 9.48,92.3 C9.50607947,93.9478159 10.0404278,95.5473684 11.01,96.88 C11.82,98.05 13.01,99.59 14.62,99.54 C15.0947764,99.5337325 15.5452957,99.3291912 15.862512,98.9758844 C16.1797283,98.6225776 16.3347301,98.1527062 16.29,97.68 C16.2580355,97.2137875 16.1673177,96.7534786 16.02,96.31 C15.9194396,95.8807861 15.8724151,95.4407715 15.88,95 C15.8,92.14 17.19,87.64 20.02,81.63 C24.0239944,73.2845771 28.6993732,65.2782416 34,57.69 C39.2717089,49.872364 45.2537502,42.5580046 51.87,35.84 C57.6875245,30.134163 63.9617525,24.9134434 70.63,20.23 C77.25,15.63 82.31,13 85.68,12.4 L86.82,12.2 L86.4,13.26 C85.7928638,14.689866 85.0947681,16.079377 84.31,17.42 C80.5513098,23.8531246 76.2204572,29.9343914 71.37,35.59 C67.0021343,41.0341396 62.0714482,46.0016969 56.66,50.41 C54.27,52.06 53.82,53.85 53.85,55.06 C53.8750269,55.3768114 53.9251847,55.6911336 54,56 C54.76,60.13 57,60.9 58.62,60.89 C60.6505802,60.6452016 62.5903662,59.9070529 64.27,58.74 C67.8818738,56.4537643 71.8106666,54.7117524 75.93,53.57 C79.6938181,52.684151 83.5435985,52.2146656 87.41,52.17 L90.41,52.11 C93.4171282,52.026573 96.4261919,52.1770262 99.41,52.56 C100.91162,52.7242154 102.358953,53.2157626 103.65,54 L103.86,54.12 C105.678674,55.0974559 106.995135,56.8030371 107.48,58.81 C108.249105,61.0699067 108.700094,63.4258182 108.82,65.81 L108.82,66.81 L108.47,66.98 C107.604917,67.3666711 106.694335,67.6421976 105.76,67.8 C104.326667,68.0933333 102.026667,68.5066667 98.86,69.04 C78.25,72.84 56.29,82.54 33.61,97.85 C23.24,104.91 15.19,112 9.68,118.91 C3.76,126.31 0.84,133 1,138.85 C1.16,144.47 4.33,148.76 10.42,151.62 C14.5224483,153.368514 18.9647363,154.174961 23.42,153.98 C28.86,153.83 35.98,152.2 45.21,148.98 C53.56,146.08 63.21,140.98 73.83,133.67 C82.2552531,127.828527 90.0237886,121.092667 97,113.58 C104.24,105.88 109.44,98.58 112.44,91.88 C114.13,88.24 115.62,84.64 116.86,81.18 L118.78,75.83 L119.34,65.14 Z M105,79.74 C104.61,80.51 104.23,81.32 103.83,82.21 C100.63,89.68 94.4,98.1 85.33,107.21 C77.1597443,115.059703 68.1253066,121.957142 58.4,127.77 C48.4,133.77 39.02,138 30.58,140.2 C26.8637691,141.058736 23.0723038,141.55109 19.26,141.67 L18.36,141.67 C16.0537645,141.80768 13.7418896,141.519543 11.54,140.82 C10.591686,140.279713 10.0302614,139.249789 10.09,138.16 C10.01,135.16 11.83,131.16 15.52,126.26 C20.79,119.44 28.64,112.51 38.87,105.66 C56.1,94.11 76,85.46 98,80 C99.4,79.66 101.52,79.23 104.31,78.7 L105.53,78.48 L105,79.74 Z" id="Shape"></path>
        </g>
    </g>
</svg>