<svg id="Capa_1" data-name="Capa 1" xmlns="http://www.w3.org/2000/svg" xmlns:xlink="http://www.w3.org/1999/xlink" viewBox="0 0 1077.68 1077.78"><defs><style>.cls-1{fill:#fff;}.cls-2{clip-path:url(#clip-path);}.cls-3{fill:#29548c;}.cls-4{fill:#f6be5e;}.cls-5{fill:#e65616;}.cls-6{fill:#020202;}</style><clipPath id="clip-path" transform="translate(-1.51 -1.41)"><circle class="cls-1" cx="540.53" cy="540.53" r="538.66"/></clipPath></defs><circle class="cls-1" cx="539.02" cy="539.12" r="538.66"/><g class="cls-2"><rect class="cls-1" width="1077.32" height="1077.32"/></g><path d="M446.9,321.44c6.17,1.27,11.39-1.88,16-5.67,4.1-3.38,7.91-7,12.77-9.35a16.83,16.83,0,0,1,14-.21c4.91,2,9.14,5.47,13.45,8.5,4.71,3.31,10,6.41,15.78,7.28a20.59,20.59,0,0,0,14.78-3.39c3.58-2.4,7-5.83,10.13-8.28.78-.6,1.59-1.16,2.42-1.68a19.1,19.1,0,0,1,2.43-1.28,10.39,10.39,0,0,1,5.53-.76l.18,0,.69.14c.51.12,1,.26,1.52.42a12.16,12.16,0,0,1,2.34,1,45.17,45.17,0,0,1,5.53,3.49c3.54,2.54,7,5.33,10.88,7.24a23.62,23.62,0,0,0,16,1.8c5.73-1.34,11-4.41,15.94-7.45s9.9-6,15.6-7.15a15.4,15.4,0,0,1,7.45.3,20.79,20.79,0,0,1,6.21,3.44c4.37,3.22,8.23,6.76,13.39,8.72a28.19,28.19,0,0,0,16.63.89c5.48-1.37,10.07-4.68,15-7.33a23.88,23.88,0,0,1,14.93-3c5.65.82,10.14,4,14.67,7.26s9.55,6.34,15.39,7a16.32,16.32,0,0,0,8.38-1.36c1.63-.69,2-3.1,1.18-4.49-1-1.69-2.86-1.87-4.49-1.18-4.46,1.9-9.78-.71-13.48-3.1-4.83-3.12-9.13-6.89-14.54-9a29.18,29.18,0,0,0-17-1.14c-5.54,1.26-10.19,4.49-15.08,7.21-4.58,2.54-9.48,3.95-14.75,3.24-5-.66-9-3.19-12.89-6.26-4.21-3.35-8.51-6.81-14-7.74-6.08-1-12,.68-17.44,3.26-5.28,2.48-10,5.93-15.2,8.59-4.56,2.35-9.89,4.3-15.06,3.08-8-1.87-13.84-9.34-21.46-12.68a18.26,18.26,0,0,0-13.35-1c-4.32,1.48-7.83,4.39-11.23,7.35-3,2.59-6.13,5.58-9.61,6.77-5,1.69-9.94.14-14.38-2.28-9.56-5.22-17.66-14.5-29.35-14.52-5.56,0-10.81,2.31-15.31,5.44s-8.09,7.24-12.71,10c-1.86,1.1-4,2-6.15,1.53a3.37,3.37,0,0,0-4,2.29,3.31,3.31,0,0,0,2.29,4Z" transform="translate(-1.51 -1.41)"/><path d="M446.9,346.91c6.17,1.27,11.39-1.88,16-5.66,4.1-3.39,7.91-7,12.77-9.36a16.83,16.83,0,0,1,14-.21c4.91,2,9.14,5.47,13.45,8.5,4.71,3.31,10,6.41,15.78,7.28a20.59,20.59,0,0,0,14.78-3.39c3.58-2.4,7-5.83,10.13-8.28.78-.6,1.59-1.16,2.42-1.68a19.1,19.1,0,0,1,2.43-1.28,10.39,10.39,0,0,1,5.53-.76l.18,0,.69.14c.51.12,1,.26,1.52.42a12.16,12.16,0,0,1,2.34,1,44.07,44.07,0,0,1,5.53,3.5c3.54,2.53,7,5.32,10.88,7.23a23.56,23.56,0,0,0,16,1.8c5.73-1.34,11-4.41,15.94-7.45s9.9-6,15.6-7.15a15.4,15.4,0,0,1,7.45.3,20.79,20.79,0,0,1,6.21,3.44c4.37,3.22,8.23,6.76,13.39,8.72a28.27,28.27,0,0,0,16.63.9c5.48-1.38,10.07-4.69,15-7.34a23.94,23.94,0,0,1,14.93-3c5.65.82,10.14,4,14.67,7.26s9.55,6.34,15.39,7a16.32,16.32,0,0,0,8.38-1.36c1.63-.69,2-3.1,1.18-4.49-1-1.69-2.86-1.87-4.49-1.18-4.46,1.9-9.78-.71-13.48-3.1-4.83-3.12-9.13-6.89-14.54-9a29.18,29.18,0,0,0-17-1.14c-5.54,1.26-10.19,4.49-15.08,7.21-4.58,2.54-9.48,3.95-14.75,3.24-5-.66-9-3.19-12.89-6.26-4.21-3.35-8.51-6.81-14-7.74-6.08-1-12,.68-17.44,3.26-5.28,2.48-10,5.93-15.2,8.6-4.56,2.34-9.89,4.29-15.06,3.07-8-1.87-13.84-9.34-21.46-12.68a18.26,18.26,0,0,0-13.35-1c-4.32,1.48-7.83,4.39-11.23,7.35-3,2.59-6.13,5.58-9.61,6.77-5,1.69-9.94.14-14.38-2.28-9.56-5.21-17.66-14.5-29.35-14.52-5.56,0-10.81,2.31-15.31,5.44s-8.09,7.24-12.71,10c-1.86,1.1-4,2-6.15,1.53a3.37,3.37,0,0,0-4,2.3,3.3,3.3,0,0,0,2.29,4Z" transform="translate(-1.51 -1.41)"/><path d="M446.9,372.39c6.17,1.26,11.39-1.89,16-5.67,4.1-3.39,7.91-7,12.77-9.35a16.79,16.79,0,0,1,14-.22c4.91,2,9.14,5.47,13.45,8.5,4.71,3.31,10,6.41,15.78,7.28a20.59,20.59,0,0,0,14.78-3.39c3.58-2.4,7-5.83,10.13-8.27a28.38,28.38,0,0,1,2.42-1.69,19.1,19.1,0,0,1,2.43-1.28,10.39,10.39,0,0,1,5.53-.76c-.46-.05.12,0,.18,0l.69.13c.51.12,1,.26,1.52.42a12.16,12.16,0,0,1,2.34,1,44.07,44.07,0,0,1,5.53,3.5c3.54,2.53,7,5.32,10.88,7.23a23.56,23.56,0,0,0,16,1.8c5.73-1.34,11-4.41,15.94-7.45s9.9-6,15.6-7.15a15.4,15.4,0,0,1,7.45.3,21.24,21.24,0,0,1,6.21,3.44c4.37,3.22,8.23,6.76,13.39,8.72a28.11,28.11,0,0,0,16.63.9c5.48-1.38,10.07-4.69,15-7.34a23.87,23.87,0,0,1,14.93-3c5.65.81,10.14,4,14.67,7.25s9.55,6.34,15.39,7a16.42,16.42,0,0,0,8.38-1.35c1.63-.7,2-3.1,1.18-4.5-1-1.69-2.86-1.87-4.49-1.17-4.46,1.89-9.78-.72-13.48-3.11-4.83-3.11-9.13-6.88-14.54-9a29.18,29.18,0,0,0-17-1.14c-5.54,1.27-10.19,4.49-15.08,7.21-4.58,2.54-9.48,3.95-14.75,3.24-5-.66-9-3.19-12.89-6.26-4.21-3.35-8.51-6.81-14-7.73-6.08-1-12,.67-17.44,3.25-5.28,2.48-10,5.93-15.2,8.6-4.56,2.34-9.89,4.3-15.06,3.08-8-1.88-13.84-9.34-21.46-12.69a18.26,18.26,0,0,0-13.35-1c-4.32,1.48-7.83,4.39-11.23,7.35-3,2.59-6.13,5.58-9.61,6.77-5,1.69-9.94.14-14.38-2.28-9.56-5.21-17.66-14.5-29.35-14.52-5.56,0-10.81,2.31-15.31,5.44s-8.09,7.24-12.71,10c-1.86,1.1-4,2-6.15,1.53a3.37,3.37,0,0,0-4,2.3,3.32,3.32,0,0,0,2.29,4Z" transform="translate(-1.51 -1.41)"/><path d="M446.9,397.86c6.17,1.26,11.39-1.89,16-5.67,4.1-3.39,7.91-7,12.77-9.35a16.83,16.83,0,0,1,14-.22c4.91,2,9.14,5.47,13.45,8.5,4.71,3.32,10,6.41,15.78,7.28A20.55,20.55,0,0,0,533.65,395c3.58-2.4,7-5.83,10.13-8.27.78-.6,1.59-1.17,2.42-1.69a19.1,19.1,0,0,1,2.43-1.28,10.39,10.39,0,0,1,5.53-.76c-.46-.05.12,0,.18,0l.69.13c.51.12,1,.26,1.52.42a12.16,12.16,0,0,1,2.34,1,44.07,44.07,0,0,1,5.53,3.5c3.54,2.53,7,5.32,10.88,7.23a23.56,23.56,0,0,0,16,1.8c5.73-1.34,11-4.41,15.94-7.45s9.9-6,15.6-7.15a15.4,15.4,0,0,1,7.45.3,21.24,21.24,0,0,1,6.21,3.44c4.37,3.22,8.23,6.76,13.39,8.73a28.19,28.19,0,0,0,16.63.89c5.48-1.38,10.07-4.68,15-7.34a23.87,23.87,0,0,1,14.93-3c5.65.81,10.14,4,14.67,7.25s9.55,6.34,15.39,7a16.42,16.42,0,0,0,8.38-1.35c1.63-.7,2-3.1,1.18-4.5a3.37,3.37,0,0,0-4.49-1.17c-4.46,1.89-9.78-.72-13.48-3.11-4.83-3.11-9.13-6.88-14.54-9a29.26,29.26,0,0,0-17-1.14c-5.54,1.27-10.19,4.49-15.08,7.21-4.58,2.54-9.48,3.95-14.75,3.25-5-.67-9-3.2-12.89-6.27-4.21-3.35-8.51-6.81-14-7.73-6.08-1-12,.67-17.44,3.25-5.28,2.48-10,5.93-15.2,8.6-4.56,2.34-9.89,4.3-15.06,3.08-8-1.88-13.84-9.34-21.46-12.69a18.26,18.26,0,0,0-13.35-1c-4.32,1.48-7.83,4.39-11.23,7.35-3,2.59-6.13,5.58-9.61,6.77-5,1.69-9.94.14-14.38-2.28-9.56-5.21-17.66-14.5-29.35-14.51-5.56,0-10.81,2.3-15.31,5.43s-8.09,7.24-12.71,10c-1.86,1.1-4,2-6.15,1.53a3.37,3.37,0,0,0-4,2.3,3.32,3.32,0,0,0,2.29,4Z" transform="translate(-1.51 -1.41)"/><polygon class="cls-3" points="476.14 213.48 229.61 682.26 722.67 682.26 476.14 213.48"/><path class="cls-3" d="M477.89,215a156.24,156.24,0,0,1,27.24,25.81c18.43,22.3,24.8,43.46,36.67,75.92,8.77,24,15.4,48.88,26.56,71.87,24.6,50.64,69.75,89.27,93.07,140.52,4.88,10.72,8.74,21.87,12.69,33,14.78,41.46,26.34,78.11,43.91,118.46L456.91,483.21Q467.4,349.13,477.89,215Z" transform="translate(-1.51 -1.41)"/><circle class="cls-4" cx="325.85" cy="424.08" r="96.7"/><path class="cls-5" d="M734.28,439.24c-9.28-1-18,4.88-24.18,11.88s-10.73,15.36-17.23,22.06c-10.91,11.24-26.65,17.19-36.5,29.37-10.14,12.55-12.53,29.89-22.1,42.88-7.56,10.25-18.89,16.89-28.75,25-33.16,27.12-49.23,70.62-53.23,113.27l300.56,0c-34.25-67.28-47.05-139.87-83.38-206.05a137.9,137.9,0,0,0-8.67-14.14A88,88,0,0,0,735.66,440" transform="translate(-1.51 -1.41)"/><path class="cls-6" d="M228.21,722.8v-.91h21.2a33.57,33.57,0,0,1,7.1.79,24,24,0,0,1,6.72,2.5,15.52,15.52,0,0,1,5,4.51,11.36,11.36,0,0,1,2,6.81,12,12,0,0,1-.79,4.38,14.11,14.11,0,0,1-2.13,3.72,13.59,13.59,0,0,1-3.17,2.87,17.8,17.8,0,0,1-4,2,25.67,25.67,0,0,1,6,2.38,20.86,20.86,0,0,1,4.93,3.75,17.31,17.31,0,0,1,3.38,5.1,15.71,15.71,0,0,1,1.25,6.3,16.31,16.31,0,0,1-1.88,7.89,18.33,18.33,0,0,1-5,5.85,22,22,0,0,1-7.09,3.59,28.45,28.45,0,0,1-8.19,1.21H228.21v-.92a7.88,7.88,0,0,0,3.21-2,4.47,4.47,0,0,0,1.38-3.29V728.06a4.48,4.48,0,0,0-1.38-3.29A7.88,7.88,0,0,0,228.21,722.8Zm12.85,2.92v55.11h13a12.42,12.42,0,0,0,5.38-1.13,12.14,12.14,0,0,0,4-3,13.5,13.5,0,0,0,2.55-4.47,16.82,16.82,0,0,0-.09-10.94,13,13,0,0,0-2.79-4.55,13.26,13.26,0,0,0-4.39-3,14.7,14.7,0,0,0-5.8-1.08,14.12,14.12,0,0,0-3,.33,10.81,10.81,0,0,0-2.84,1,6.57,6.57,0,0,0-2.13,1.79,4.13,4.13,0,0,0-.84,2.59l-1,.59a8,8,0,0,1-.83-1.68,5.15,5.15,0,0,1-.34-1.83,6.39,6.39,0,0,1,1-3.76,6.91,6.91,0,0,1,2.58-2.21,11.6,11.6,0,0,1,3.51-1.08,24.3,24.3,0,0,1,3.76-.3,6.87,6.87,0,0,0,3.84-1.09,10.31,10.31,0,0,0,2.84-2.71,11.75,11.75,0,0,0,1.75-3.67,14.1,14.1,0,0,0,.58-3.88,11.17,11.17,0,0,0-1-4.8,9.63,9.63,0,0,0-2.63-3.43,11.34,11.34,0,0,0-4-2.08,16.79,16.79,0,0,0-5-.72Z" transform="translate(-1.51 -1.41)"/><path class="cls-6" d="M298.5,785.51l.34-1c.55-.16,1.25-.42,2.08-.75a15.62,15.62,0,0,0,2.42-1.21,22.82,22.82,0,0,0,2.14-1.46,3.38,3.38,0,0,0,1.2-1.5l23.55-56L353,780.08a5.88,5.88,0,0,0,2.51,2.8,14.82,14.82,0,0,0,3.5,1.62l.34,1H341.83l-.25-.92a5,5,0,0,0,2.34-2.13,3,3,0,0,0,.09-3l-4.85-12.19h-22l-5.18,13a2.75,2.75,0,0,0,.46,1.58,4.83,4.83,0,0,0,1.13,1.17,7.07,7.07,0,0,0,1.42.84c.5.22,1,.45,1.42.67l-.25.92ZM319.29,762h17.78l-8.59-21.7Z" transform="translate(-1.51 -1.41)"/><path class="cls-6" d="M382.16,735.08l.67-10.94H432.5l.67,10.94h-1a9.28,9.28,0,0,0-.88-2.05,13.19,13.19,0,0,0-1.46-2.13,10.29,10.29,0,0,0-1.71-1.67,2.94,2.94,0,0,0-1.79-.66H411.88v50.76a4.35,4.35,0,0,0,1.38,3.25,9.07,9.07,0,0,0,3.13,2v.92H398.94v-.92a8.54,8.54,0,0,0,3.17-2,4.42,4.42,0,0,0,1.34-3.25V728.57H389a3,3,0,0,0-1.75.66,10.09,10.09,0,0,0-1.75,1.67A13.19,13.19,0,0,0,384,733a9.28,9.28,0,0,0-.88,2.05Z" transform="translate(-1.51 -1.41)"/><path class="cls-6" d="M437,735.08l.67-10.94h49.68l.67,10.94h-1a9.2,9.2,0,0,0-.87-2.05,13.93,13.93,0,0,0-1.47-2.13,10.29,10.29,0,0,0-1.71-1.67,2.94,2.94,0,0,0-1.79-.66H466.74v50.76a4.34,4.34,0,0,0,1.37,3.25,9.07,9.07,0,0,0,3.13,2v.92H453.79v-.92a8.58,8.58,0,0,0,3.18-2,4.45,4.45,0,0,0,1.33-3.25V728.57H443.86a3.07,3.07,0,0,0-1.76.66,10.09,10.09,0,0,0-1.75,1.67,13.86,13.86,0,0,0-1.46,2.13,9.28,9.28,0,0,0-.88,2.05Z" transform="translate(-1.51 -1.41)"/><path class="cls-6" d="M510.82,785.51l.33-1c.56-.16,1.25-.42,2.09-.75a16.56,16.56,0,0,0,2.42-1.21,21.4,21.4,0,0,0,2.13-1.46,3.41,3.41,0,0,0,1.21-1.5l23.54-56,22.8,56.53a5.86,5.86,0,0,0,2.5,2.8,14.7,14.7,0,0,0,3.51,1.62l.33,1H554.15l-.25-.92a5,5,0,0,0,2.34-2.13,3,3,0,0,0,.08-3l-4.84-12.19h-22l-5.18,13a2.68,2.68,0,0,0,.46,1.58,4.65,4.65,0,0,0,1.13,1.17,6.56,6.56,0,0,0,1.42.84c.5.22,1,.45,1.41.67l-.25.92ZM531.61,762h17.78l-8.6-21.7Z" transform="translate(-1.51 -1.41)"/><path class="cls-6" d="M653.25,777.57a22.87,22.87,0,0,1-5.39,3.8,36.75,36.75,0,0,1-6.63,2.67,51.55,51.55,0,0,1-7.1,1.59,45.16,45.16,0,0,1-6.68.54A39.23,39.23,0,0,1,614,784a30,30,0,0,1-10.44-6.3,28,28,0,0,1-6.72-9.94,34.12,34.12,0,0,1-2.38-13,31.59,31.59,0,0,1,2.47-12.61,30,30,0,0,1,6.72-9.89,30.92,30.92,0,0,1,10.06-6.48,33,33,0,0,1,12.39-2.33,43.4,43.4,0,0,1,10.27,1.21,70.34,70.34,0,0,1,9.77,3.13l.59-1.25h.92l1.83,15.36h-1.17l-.08-.25a19.58,19.58,0,0,0-3.3-5.85,22.75,22.75,0,0,0-4.88-4.42,23.23,23.23,0,0,0-12.86-3.84,21.24,21.24,0,0,0-17.2,8,24.78,24.78,0,0,0-4.38,8.39,33.18,33.18,0,0,0-1.46,9.85A38.83,38.83,0,0,0,605.57,764a29.17,29.17,0,0,0,4.31,9.18,22.51,22.51,0,0,0,7.18,6.55,19.51,19.51,0,0,0,10.06,2.51,28.65,28.65,0,0,0,4.34-.34,27.28,27.28,0,0,0,4.47-1,30.91,30.91,0,0,0,4.25-1.71,17.7,17.7,0,0,0,3.55-2.25V760.37a4.48,4.48,0,0,0-1.38-3.29,8,8,0,0,0-3.13-2v-.91h16.95v.91a7.66,7.66,0,0,0-3.17,2,4.56,4.56,0,0,0-1.34,3.29v13.11a4.45,4.45,0,0,0,1.51,3.51Z" transform="translate(-1.51 -1.41)"/><path class="cls-6" d="M680.63,784.59a8.86,8.86,0,0,0,3.21-2,4.35,4.35,0,0,0,1.38-3.25v-49a4.37,4.37,0,0,0-1.38-3.26,8.84,8.84,0,0,0-3.21-2v-.92h17.53v.92a8.92,8.92,0,0,0-3.21,2,4.37,4.37,0,0,0-1.38,3.26v50.76h20.62a3.76,3.76,0,0,0,2.09-.83,14.9,14.9,0,0,0,2.25-2,20.81,20.81,0,0,0,2-2.46,8.19,8.19,0,0,0,1.12-2.13h1.09l-2.34,11.86H680.63Z" transform="translate(-1.51 -1.41)"/><path class="cls-6" d="M747.17,724.14H764.7v.92a8.84,8.84,0,0,0-3.21,2,4.37,4.37,0,0,0-1.38,3.26v49a4.35,4.35,0,0,0,1.38,3.25,8.86,8.86,0,0,0,3.21,2v.92H747.17v-.92a9,9,0,0,0,3.21-2,4.35,4.35,0,0,0,1.38-3.25v-49a4.37,4.37,0,0,0-1.38-3.26,8.92,8.92,0,0,0-3.21-2Z" transform="translate(-1.51 -1.41)"/><path class="cls-6" d="M789.16,785.51l.34-1c.55-.16,1.25-.42,2.09-.75a16.56,16.56,0,0,0,2.42-1.21,22.44,22.44,0,0,0,2.12-1.46,3.44,3.44,0,0,0,1.22-1.5l23.54-56,22.79,56.53a5.88,5.88,0,0,0,2.51,2.8,14.82,14.82,0,0,0,3.5,1.62l.34,1H832.49l-.24-.92a5,5,0,0,0,2.33-2.13,3,3,0,0,0,.08-3l-4.84-12.19h-22l-5.18,13a2.75,2.75,0,0,0,.46,1.58,4.83,4.83,0,0,0,1.13,1.17,6.8,6.8,0,0,0,1.42.84c.5.22,1,.45,1.42.67l-.25.92ZM810,762h17.79l-8.61-21.7Z" transform="translate(-1.51 -1.41)"/><path class="cls-5" d="M268.49,348.78s-33.64,152.57,126,146.28c0,0-26.34,33.71-81.84,26,0,0-43.5-3.32-69.49-48,0,0-21-32.35-9-74.35C234.18,398.77,241.79,367.79,268.49,348.78Z" transform="translate(-1.51 -1.41)"/></svg>