<svg width="676" height="125" viewBox="0 0 676 125" fill="none" xmlns="http://www.w3.org/2000/svg">
<path d="M4.64003 88.07L4.77003 87.93C5.3447 87.479 5.89545 86.9984 6.42003 86.49C7.06823 85.8623 7.67611 85.1943 8.24003 84.49C8.80418 83.8217 9.31888 83.1131 9.78003 82.37C10.162 81.8191 10.3772 81.1699 10.4 80.5L10.69 65.62C8.7651 65.761 6.83129 65.5197 5.00003 64.91C4.09098 64.5463 3.277 63.9797 2.62018 63.2536C1.96336 62.5274 1.48105 61.6609 1.21003 60.72C0.861494 59.7516 0.633121 58.7441 0.530029 57.72L1.53003 57.33C1.96227 58.0191 2.5561 58.5924 3.26003 59C3.9751 59.4086 4.75737 59.6863 5.57003 59.82C6.44912 59.9619 7.34056 60.0122 8.23003 59.97C9.10025 59.9348 9.96807 59.8547 10.83 59.73L11.6 14.8L55 64.45C55.4055 64.9539 55.927 65.3519 56.52 65.61C57.8111 66.21 59.2077 66.5498 60.63 66.61C61.1994 66.6483 61.7707 66.6483 62.34 66.61L63.02 67.45L46.22 73.65L45.65 72.86C46.2525 72.3017 46.7268 71.6193 47.04 70.86C47.3399 70.1123 47.3399 69.2777 47.04 68.53C46.3259 66.3436 45.0864 64.3658 43.43 62.77C42.0645 61.5286 40.406 60.6546 38.61 60.23C36.7702 59.8082 34.8682 59.7302 33 60C30.9739 60.284 28.9693 60.705 27 61.26C25 61.83 23 62.45 21.14 63.13C19.3785 63.7649 17.5822 64.2991 15.76 64.73L15.68 79.3C15.6612 79.5651 15.7156 79.8304 15.8372 80.0667C15.9589 80.303 16.1432 80.5013 16.37 80.64C16.8814 80.9827 17.4506 81.2301 18.05 81.37C18.6771 81.5316 19.3157 81.6453 19.96 81.71L21.48 81.88L21.57 82.88L4.68003 89.15L4.64003 88.07ZM34.91 54.07L16.37 32.72L15.84 58.45C17.3734 57.9967 18.92 57.4967 20.48 56.95C22.04 56.4 23.63 55.89 25.25 55.44C26.87 54.99 28.48 54.61 30.08 54.32C31.6728 54.0313 33.296 53.9472 34.91 54.07Z" fill="white"/>
<path d="M87.3 61.66L90.94 9.51C90.9974 8.8759 90.9231 8.23678 90.7217 7.63277C90.5204 7.02875 90.1964 6.47286 89.77 6C88.9206 5.01206 87.8427 4.24655 86.63 3.77L86.69 2.83L109.28 4.41C111.891 4.60621 114.477 5.05838 117 5.76C119.468 6.40064 121.813 7.44471 123.94 8.85C125.947 10.1846 127.612 11.9728 128.8 14.07C130.04 16.4277 130.552 19.1009 130.27 21.75C130.149 23.5161 129.694 25.2433 128.93 26.84C128.152 28.4647 127.142 29.9672 125.93 31.3C124.703 32.6608 123.309 33.8604 121.78 34.87C120.29 35.8668 118.681 36.673 116.99 37.27C118.183 37.9421 119.291 38.7545 120.29 39.69C121.292 40.7066 121.985 41.9859 122.29 43.38L126.59 61.58C126.88 62.6205 127.283 63.6264 127.79 64.58C128.302 65.5645 128.93 66.4844 129.66 67.32C130.322 68.0799 131.078 68.752 131.91 69.32C132.58 69.8166 133.371 70.124 134.2 70.21L134.13 71.21L126.97 70.71C124.534 70.6986 122.201 69.7244 120.48 68C118.92 66.2042 117.882 64.0147 117.48 61.67C116.98 59.06 116.48 56.49 116.01 53.94C115.54 51.39 115.01 48.82 114.53 46.22C114.239 44.2894 113.435 42.4725 112.2 40.96C111.513 40.2563 110.692 39.698 109.785 39.3183C108.878 38.9386 107.903 38.7454 106.92 38.75C105.193 38.597 103.463 39.0189 102 39.95C101.294 40.3738 100.704 40.9651 100.282 41.6716C99.8602 42.3781 99.6189 43.1779 99.58 44L98.58 44.19C98.0776 43.1665 97.86 42.0266 97.95 40.89C98.1367 38.2233 99.0967 36.3633 100.83 35.31C102.741 34.2235 104.945 33.7652 107.13 34C109.001 34.1499 110.883 33.9151 112.66 33.31C114.297 32.7508 115.811 31.8816 117.12 30.75C118.402 29.6396 119.444 28.2783 120.18 26.75C120.956 25.1575 121.411 23.4281 121.52 21.66C121.82 17.45 120.8 14.29 118.46 12.15C116.12 10.01 112.86 8.81 108.65 8.51L99.65 7.88L95.85 62.26C95.794 62.8848 95.8672 63.5144 96.065 64.1097C96.2629 64.7049 96.5811 65.2531 97 65.72C97.8391 66.7311 98.9188 67.5151 100.14 68L100.07 68.94L82.17 67.69L82.24 66.76C83.5081 66.4544 84.6822 65.8433 85.66 64.98C86.1485 64.5704 86.5465 64.0638 86.8289 63.4923C87.1112 62.9208 87.2716 62.2968 87.3 61.66Z" fill="white"/>
<path d="M186 79.81C185.805 80.3988 185.733 81.0217 185.79 81.6395C185.847 82.2573 186.031 82.8567 186.33 83.4C186.936 84.5441 187.79 85.5384 188.83 86.31L188.55 87.21L171.44 82L171.72 81.11C172.995 81.0259 174.24 80.6858 175.38 80.11C175.939 79.8353 176.435 79.4471 176.837 78.9702C177.238 78.4933 177.535 77.9381 177.71 77.34L192.88 27.93C191.26 27.19 189.65 26.49 188.04 25.81C186.43 25.13 184.75 24.53 183.04 24C180.778 23.2824 178.413 22.9445 176.04 23C174.886 23.0519 173.755 23.3458 172.721 23.8626C171.688 24.3794 170.774 25.1076 170.04 26L168.57 25.55C170.02 22.454 172.584 20.0186 175.75 18.73C178.983 17.4866 182.548 17.4123 185.83 18.52C188.276 19.2558 190.671 20.151 193 21.2C195.38 22.2933 197.74 23.39 200.08 24.49C202.42 25.59 204.753 26.6833 207.08 27.77C209.444 28.8587 211.88 29.7842 214.37 30.54C215.185 30.7936 216.013 31.0039 216.85 31.17C217.729 31.3574 218.622 31.4678 219.52 31.5C220.392 31.536 221.264 31.4451 222.11 31.23C222.921 31.0242 223.679 30.6456 224.33 30.12L225.33 30.42C224.923 31.9652 224.132 33.3825 223.03 34.54C222.1 35.4671 220.941 36.1298 219.67 36.46C218.363 36.7852 217.006 36.8633 215.67 36.69C214.191 36.508 212.732 36.1934 211.31 35.75C209.45 35.18 207.66 34.54 205.91 33.83C204.16 33.12 202.46 32.35 200.8 31.54L186 79.81Z" fill="white"/>
<path d="M231.75 99.61L248.81 46.13C249.009 45.5337 249.083 44.9029 249.028 44.2768C248.973 43.6506 248.79 43.0425 248.49 42.49C247.907 41.3308 247.052 40.3293 246 39.57L246.29 38.68L285.11 51.07L282.36 61.94L281.36 61.62C281.355 60.887 281.275 60.1565 281.12 59.44C280.946 58.5748 280.692 57.7278 280.36 56.91C280.048 56.1327 279.652 55.3916 279.18 54.7C278.819 54.108 278.264 53.6592 277.61 53.43L257.5 47L250.74 68.16L265.8 73C266.413 73.191 267.073 73.1663 267.67 72.93C268.353 72.6728 269.004 72.3372 269.61 71.93C270.26 71.4824 270.86 70.9661 271.4 70.39C271.879 69.8905 272.321 69.3556 272.72 68.79L273.72 69.1L268.61 85.1L267.61 84.79C267.613 84.0972 267.563 83.4051 267.46 82.72C267.354 81.9382 267.163 81.1702 266.89 80.43C266.643 79.7237 266.307 79.0517 265.89 78.43C265.544 77.8936 265.026 77.4914 264.42 77.29L249.36 72.48L239.75 102.6C241.381 103.612 242.938 104.738 244.41 105.97C245.93 107.23 247.41 108.48 249 109.72C250.59 110.96 252.14 112.11 253.77 113.17C255.367 114.212 257.095 115.036 258.91 115.62C260.373 116.128 261.945 116.234 263.463 115.928C264.98 115.622 266.388 114.915 267.54 113.88L268.79 114.46C268.002 115.558 267.092 116.564 266.08 117.46C265.054 118.371 263.907 119.135 262.67 119.73C261.438 120.32 260.117 120.702 258.76 120.86C257.359 121.018 255.94 120.871 254.6 120.43C252.432 119.738 250.401 118.672 248.6 117.28C246.76 115.85 244.9 114.35 243.05 112.77C241.2 111.19 239.28 109.67 237.33 108.21C235.385 106.758 233.212 105.64 230.9 104.9C229.934 104.579 228.915 104.45 227.9 104.52C226.918 104.607 225.976 104.952 225.17 105.52L224.11 105.18C224.868 103.681 225.883 102.327 227.11 101.18C227.735 100.614 228.469 100.183 229.267 99.9131C230.065 99.643 230.91 99.5399 231.75 99.61Z" fill="white"/>
<path d="M300.07 117.36L299.07 117.25L301.22 102.19L302.32 102.3L302.37 102.65C302.671 104.706 303.211 106.72 303.98 108.65C304.727 110.534 305.781 112.281 307.1 113.82C308.423 115.34 310.008 116.61 311.78 117.57C313.68 118.585 315.765 119.207 317.91 119.4C319.772 119.607 321.656 119.496 323.48 119.07C325.157 118.672 326.744 117.963 328.16 116.98C329.542 116.008 330.699 114.75 331.55 113.29C332.445 111.718 332.991 109.972 333.15 108.17C333.339 106.396 332.916 104.61 331.95 103.11C330.908 101.481 329.642 100.007 328.19 98.73C326.657 97.3604 325.018 96.1132 323.29 95C321.55 93.88 320.03 92.88 318.75 92C316.81 90.7667 314.927 89.4333 313.1 88C311.339 86.6477 309.727 85.1125 308.29 83.42C306.926 81.8208 305.85 79.9971 305.11 78.03C304.355 75.9448 304.099 73.7121 304.36 71.51C304.548 69.1033 305.505 66.8209 307.09 65C308.649 63.2634 310.576 61.8968 312.73 61C315.01 60.0645 317.416 59.4747 319.87 59.25C322.24 59.0056 324.63 59.0056 327 59.25C328.265 59.3665 329.518 59.5804 330.75 59.89C331.813 60.1453 332.856 60.4796 333.87 60.89C334.87 61.31 335.87 61.75 336.87 62.23L340.23 63.82L340.94 62.7L341.94 62.8L340.41 77.67L339.31 77.56L339.26 77.21C338.689 73.7122 337.221 70.422 335 67.66C332.9 65.24 329.67 63.8033 325.31 63.35C323.855 63.2005 322.385 63.2679 320.95 63.55C319.582 63.7918 318.27 64.2833 317.08 65C315.959 65.7087 314.99 66.6333 314.23 67.72C313.428 68.8842 312.948 70.2402 312.84 71.65C312.686 72.9468 312.891 74.2608 313.43 75.45C313.972 76.6233 314.686 77.7087 315.55 78.67C316.455 79.6758 317.461 80.5872 318.55 81.39C319.67 82.2233 320.71 82.9733 321.67 83.64C323.85 85.2867 326.16 86.9267 328.6 88.56C330.964 90.1286 333.18 91.9093 335.22 93.88C337.173 95.7633 338.778 97.9775 339.96 100.42C341.179 103.108 341.616 106.085 341.22 109.01C341 111.694 340.022 114.26 338.4 116.41C336.837 118.434 334.864 120.103 332.61 121.31C330.273 122.554 327.751 123.412 325.14 123.85C322.499 124.311 319.807 124.408 317.14 124.14C314.023 123.827 310.98 122.992 308.14 121.67C305.315 120.38 302.773 118.545 300.66 116.27L300.07 117.36Z" fill="white"/>
<path d="M379.56 122.14L379.69 122C380.276 121.562 380.837 121.091 381.37 120.59C382.025 119.985 382.646 119.344 383.23 118.67C383.801 118.007 384.325 117.305 384.8 116.57C385.19 116.025 385.416 115.379 385.45 114.71L386 99.84C384.063 99.9395 382.126 99.654 380.3 99C379.398 98.6202 378.595 98.0402 377.95 97.3038C377.306 96.5675 376.837 95.6942 376.58 94.75C376.252 93.7786 376.04 92.7715 375.95 91.75L377 91.38C377.426 92.0435 378.001 92.5983 378.68 93C379.387 93.4272 380.167 93.7188 380.98 93.86C381.854 94.0194 382.742 94.0864 383.63 94.06C384.5 94.0378 385.367 93.971 386.23 93.86L387.77 49L430.33 99.38C430.722 99.896 431.238 100.305 431.83 100.57C433.114 101.178 434.502 101.534 435.92 101.62C436.489 101.657 437.061 101.657 437.63 101.62L438.3 102.47L421.38 108.47L420.83 107.67C421.447 107.118 421.933 106.435 422.25 105.67C422.55 104.926 422.55 104.094 422.25 103.35C421.573 101.15 420.368 99.1481 418.74 97.52C417.406 96.2544 415.777 95.3433 414 94.87C412.174 94.4291 410.282 94.3308 408.42 94.58C406.396 94.8303 404.391 95.2178 402.42 95.74C400.42 96.27 398.42 96.86 396.52 97.51C394.752 98.1193 392.949 98.6202 391.12 99.01L390.73 113.56C390.705 113.824 390.754 114.09 390.87 114.328C390.986 114.566 391.166 114.768 391.39 114.91C391.902 115.261 392.47 115.522 393.07 115.68C393.694 115.847 394.329 115.97 394.97 116.05L396.48 116.24L396.56 117.24L379.56 123.24V122.14ZM410.4 88.66L392.23 67L391.23 92.72C392.77 92.29 394.32 91.82 395.89 91.29C397.46 90.76 399.05 90.29 400.69 89.87C402.33 89.45 403.93 89.1 405.53 88.87C407.138 88.5912 408.774 88.5206 410.4 88.66Z" fill="white"/>
<path d="M440.85 28.22L453.74 23.66L498.88 56.44L485.62 19C485.394 18.3905 484.972 17.8733 484.42 17.53C483.802 17.1231 483.128 16.8066 482.42 16.59C481.683 16.3546 480.927 16.184 480.16 16.08C479.445 15.9775 478.721 15.9507 478 16L477.69 15.12L493.69 9.44L494 10.33C493.432 10.7553 492.903 11.2305 492.42 11.75C491.901 12.3198 491.427 12.9282 491 13.57C490.57 14.1838 490.233 14.8577 490 15.57C489.79 16.1859 489.79 16.8541 490 17.47L510.41 75.2L452.93 33.92L469.35 80.31C469.576 80.9195 469.998 81.4367 470.55 81.78C471.165 82.1901 471.84 82.5037 472.55 82.71C473.315 82.9352 474.098 83.0958 474.89 83.19C475.596 83.2861 476.308 83.3229 477.02 83.3L477.33 84.19L461.33 89.86L461 89C461.589 88.5817 462.132 88.1024 462.62 87.57C463.158 86.9942 463.653 86.3792 464.1 85.73C464.53 85.1162 464.867 84.4423 465.1 83.73C465.31 83.1141 465.31 82.4459 465.1 81.83L448 33.66C447.678 32.6084 447.12 31.644 446.37 30.84C445.81 30.2519 445.127 29.7944 444.37 29.5C443.771 29.2662 443.141 29.1213 442.5 29.07C441.91 29.07 441.43 29 441.05 28.95L440.85 28.22Z" fill="white"/>
<path d="M536.73 35.27C536.68 30.7753 537.449 26.309 539 22.09C540.468 18.0379 542.699 14.3041 545.57 11.09C548.579 7.7266 552.269 5.04128 556.394 3.21209C560.52 1.38289 564.987 0.451615 569.5 0.480003C574.073 0.383498 578.626 1.1118 582.94 2.63C586.834 4.00421 590.4 6.1735 593.41 9C596.37 11.8132 598.701 15.2213 600.25 19C601.916 23.1065 602.765 27.4985 602.75 31.93C602.809 36.4196 602.05 40.8823 600.51 45.1C599.042 49.1521 596.811 52.8859 593.94 56.1C590.94 59.4595 587.258 62.1414 583.141 63.9674C579.023 65.7934 574.564 66.7215 570.06 66.69C565.457 66.7902 560.874 66.0445 556.54 64.49C552.657 63.0979 549.095 60.9345 546.07 58.13C543.106 55.343 540.774 51.9537 539.23 48.19C537.565 44.0867 536.716 39.6982 536.73 35.27ZM546 35C546.023 38.4397 546.542 41.8582 547.54 45.15C548.469 48.3157 549.982 51.2798 552 53.89C553.981 56.4079 556.495 58.4568 559.36 59.89C562.595 61.4647 566.164 62.2267 569.76 62.11C573.341 62.1619 576.86 61.183 579.9 59.29C582.783 57.4485 585.238 55.0104 587.1 52.14C589.038 49.156 590.496 45.8862 591.42 42.45C592.371 39.052 592.845 35.5385 592.83 32.01C592.808 28.5571 592.289 25.1252 591.29 21.82C590.359 18.6792 588.857 15.7368 586.86 13.14C584.783 10.4636 582.097 8.32149 579.025 6.89181C575.954 5.46214 572.585 4.78615 569.2 4.92C565.62 4.86814 562.1 5.84704 559.06 7.74C556.177 9.58184 553.708 12.0031 551.81 14.85C549.836 17.8194 548.363 21.093 547.45 24.54C546.489 27.9436 546.001 31.4633 546 35Z" fill="white"/>
<path d="M624.35 65.89L623.35 65.6L628.17 51.17L629.23 51.48V51.83C629.145 53.9225 629.313 56.0177 629.73 58.07C630.117 60.0614 630.84 61.9721 631.87 63.72C632.892 65.455 634.224 66.9872 635.8 68.24C639.004 70.7272 642.988 71.9959 647.04 71.82C648.769 71.735 650.466 71.321 652.04 70.6C653.577 69.9043 654.942 68.8803 656.04 67.6C657.203 66.2132 658.055 64.5936 658.54 62.85C659.042 61.1395 658.947 59.3092 658.27 57.66C657.537 55.8663 656.558 54.1834 655.36 52.66C654.094 51.0376 652.703 49.5164 651.2 48.11C649.693 46.69 648.383 45.4367 647.27 44.35C645.59 42.79 643.977 41.1467 642.43 39.42C640.943 37.7752 639.632 35.9786 638.52 34.06C637.47 32.2375 636.74 30.2488 636.36 28.18C635.991 25.993 636.138 23.7499 636.79 21.63C637.405 19.2625 638.77 17.1577 640.68 15.63C642.532 14.231 644.669 13.2578 646.94 12.78C649.352 12.2741 651.825 12.1258 654.28 12.34C656.65 12.5136 658.995 12.9291 661.28 13.58C662.505 13.9209 663.702 14.3555 664.86 14.88C665.854 15.343 666.813 15.8778 667.73 16.48C668.63 17.06 669.55 17.69 670.48 18.34C671.41 18.99 672.42 19.72 673.48 20.51L674.39 19.51L675.39 19.8L671.22 34.15L670.15 33.84V33.49C670.204 29.9195 669.325 26.3968 667.6 23.27C665.967 20.5233 663.047 18.5233 658.84 17.27C657.437 16.862 655.981 16.6632 654.52 16.68C653.13 16.6867 651.753 16.9512 650.46 17.46C649.23 17.9526 648.111 18.6871 647.17 19.62C646.168 20.6213 645.451 21.8705 645.09 23.24C644.708 24.4942 644.676 25.8293 645 27.1C645.317 28.3527 645.823 29.5497 646.5 30.65C647.221 31.8031 648.059 32.8787 649 33.86C649.95 34.86 650.84 35.8 651.66 36.63C653.507 38.63 655.483 40.66 657.59 42.72C659.64 44.6819 661.501 46.8313 663.15 49.14C664.73 51.3438 665.911 53.8079 666.64 56.42C667.354 59.2844 667.25 62.2917 666.34 65.1C665.645 67.7032 664.219 70.0527 662.23 71.87C660.333 73.5821 658.093 74.8706 655.66 75.65C653.138 76.462 650.499 76.8539 647.85 76.81C645.177 76.7909 642.519 76.4074 639.95 75.67C636.955 74.8085 634.123 73.4569 631.57 71.67C629.01 69.8933 626.828 67.6262 625.15 65L624.35 65.89Z" fill="white"/>
<path d="M4.64003 88.07L4.77003 87.93C5.3447 87.479 5.89545 86.9984 6.42003 86.49C7.06823 85.8623 7.67611 85.1943 8.24003 84.49C8.80418 83.8217 9.31888 83.1131 9.78003 82.37C10.162 81.8191 10.3772 81.1699 10.4 80.5L10.69 65.62C8.7651 65.761 6.83129 65.5197 5.00003 64.91C4.09098 64.5463 3.277 63.9797 2.62018 63.2536C1.96336 62.5274 1.48105 61.6609 1.21003 60.72C0.861494 59.7516 0.633121 58.7441 0.530029 57.72L1.53003 57.33C1.96227 58.0191 2.5561 58.5924 3.26003 59C3.9751 59.4086 4.75737 59.6863 5.57003 59.82C6.44912 59.9619 7.34056 60.0122 8.23003 59.97C9.10025 59.9348 9.96807 59.8547 10.83 59.73L11.6 14.8L55 64.45C55.4055 64.9539 55.927 65.3519 56.52 65.61C57.8111 66.21 59.2077 66.5498 60.63 66.61C61.1994 66.6483 61.7707 66.6483 62.34 66.61L63.02 67.45L46.22 73.65L45.65 72.86C46.2525 72.3017 46.7268 71.6193 47.04 70.86C47.3399 70.1123 47.3399 69.2777 47.04 68.53C46.3259 66.3436 45.0864 64.3658 43.43 62.77C42.0645 61.5286 40.406 60.6546 38.61 60.23C36.7702 59.8082 34.8682 59.7302 33 60C30.9739 60.284 28.9693 60.705 27 61.26C25 61.83 23 62.45 21.14 63.13C19.3785 63.7649 17.5822 64.2991 15.76 64.73L15.68 79.3C15.6612 79.5651 15.7156 79.8304 15.8372 80.0667C15.9589 80.303 16.1432 80.5013 16.37 80.64C16.8814 80.9827 17.4506 81.2301 18.05 81.37C18.6771 81.5316 19.3157 81.6453 19.96 81.71L21.48 81.88L21.57 82.88L4.68003 89.15L4.64003 88.07ZM34.91 54.07L16.37 32.72L15.84 58.45C17.3734 57.9967 18.92 57.4967 20.48 56.95C22.04 56.4 23.63 55.89 25.25 55.44C26.87 54.99 28.48 54.61 30.08 54.32C31.6728 54.0313 33.296 53.9472 34.91 54.07Z" stroke="white" stroke-width="0.95" stroke-miterlimit="10"/>
<path d="M87.3 61.66L90.94 9.51C90.9974 8.8759 90.9231 8.23678 90.7217 7.63277C90.5204 7.02875 90.1964 6.47286 89.77 6C88.9206 5.01206 87.8427 4.24655 86.63 3.77L86.69 2.83L109.28 4.41C111.891 4.60621 114.477 5.05838 117 5.76C119.468 6.40064 121.813 7.44471 123.94 8.85C125.947 10.1846 127.612 11.9728 128.8 14.07C130.04 16.4277 130.552 19.1009 130.27 21.75C130.149 23.5161 129.694 25.2433 128.93 26.84C128.152 28.4647 127.142 29.9672 125.93 31.3C124.703 32.6608 123.309 33.8604 121.78 34.87C120.29 35.8668 118.681 36.673 116.99 37.27C118.183 37.9421 119.291 38.7545 120.29 39.69C121.292 40.7066 121.985 41.9859 122.29 43.38L126.59 61.58C126.88 62.6205 127.283 63.6264 127.79 64.58C128.302 65.5645 128.93 66.4844 129.66 67.32C130.322 68.0799 131.078 68.752 131.91 69.32C132.58 69.8166 133.371 70.124 134.2 70.21L134.13 71.21L126.97 70.71C124.534 70.6986 122.201 69.7244 120.48 68C118.92 66.2042 117.882 64.0147 117.48 61.67C116.98 59.06 116.48 56.49 116.01 53.94C115.54 51.39 115.01 48.82 114.53 46.22C114.239 44.2894 113.435 42.4725 112.2 40.96C111.513 40.2563 110.692 39.698 109.785 39.3183C108.878 38.9386 107.903 38.7454 106.92 38.75C105.193 38.597 103.463 39.0189 102 39.95C101.294 40.3738 100.704 40.9651 100.282 41.6716C99.8602 42.3781 99.6189 43.1779 99.58 44L98.58 44.19C98.0776 43.1665 97.86 42.0266 97.95 40.89C98.1367 38.2233 99.0967 36.3633 100.83 35.31C102.741 34.2235 104.945 33.7652 107.13 34C109.001 34.1499 110.883 33.9151 112.66 33.31C114.297 32.7508 115.811 31.8816 117.12 30.75C118.402 29.6396 119.444 28.2783 120.18 26.75C120.956 25.1575 121.411 23.4281 121.52 21.66C121.82 17.45 120.8 14.29 118.46 12.15C116.12 10.01 112.86 8.81 108.65 8.51L99.65 7.88L95.85 62.26C95.794 62.8848 95.8672 63.5144 96.065 64.1097C96.2629 64.7049 96.5811 65.2531 97 65.72C97.8391 66.7311 98.9188 67.5151 100.14 68L100.07 68.94L82.17 67.69L82.24 66.76C83.5081 66.4544 84.6822 65.8433 85.66 64.98C86.1485 64.5704 86.5465 64.0638 86.8289 63.4923C87.1112 62.9208 87.2716 62.2968 87.3 61.66Z" stroke="white" stroke-width="0.95" stroke-miterlimit="10"/>
<path d="M186 79.81C185.805 80.3988 185.733 81.0217 185.79 81.6395C185.847 82.2573 186.031 82.8567 186.33 83.4C186.936 84.5441 187.79 85.5384 188.83 86.31L188.55 87.21L171.44 82L171.72 81.11C172.995 81.0259 174.24 80.6858 175.38 80.11C175.939 79.8353 176.435 79.4471 176.837 78.9702C177.238 78.4933 177.535 77.9381 177.71 77.34L192.88 27.93C191.26 27.19 189.65 26.49 188.04 25.81C186.43 25.13 184.75 24.53 183.04 24C180.778 23.2824 178.413 22.9445 176.04 23C174.886 23.0519 173.755 23.3458 172.721 23.8626C171.688 24.3794 170.774 25.1076 170.04 26L168.57 25.55C170.02 22.454 172.584 20.0186 175.75 18.73C178.983 17.4866 182.548 17.4123 185.83 18.52C188.276 19.2558 190.671 20.151 193 21.2C195.38 22.2933 197.74 23.39 200.08 24.49C202.42 25.59 204.753 26.6833 207.08 27.77C209.444 28.8587 211.88 29.7842 214.37 30.54C215.185 30.7936 216.013 31.0039 216.85 31.17C217.729 31.3574 218.622 31.4678 219.52 31.5C220.392 31.536 221.264 31.4451 222.11 31.23C222.921 31.0242 223.679 30.6456 224.33 30.12L225.33 30.42C224.923 31.9652 224.132 33.3825 223.03 34.54C222.1 35.4671 220.941 36.1298 219.67 36.46C218.363 36.7852 217.006 36.8633 215.67 36.69C214.191 36.508 212.732 36.1934 211.31 35.75C209.45 35.18 207.66 34.54 205.91 33.83C204.16 33.12 202.46 32.35 200.8 31.54L186 79.81Z" stroke="white" stroke-width="0.95" stroke-miterlimit="10"/>
<path d="M231.75 99.61L248.81 46.13C249.009 45.5337 249.083 44.9029 249.028 44.2768C248.973 43.6506 248.79 43.0425 248.49 42.49C247.907 41.3308 247.052 40.3293 246 39.57L246.29 38.68L285.11 51.07L282.36 61.94L281.36 61.62C281.355 60.887 281.275 60.1565 281.12 59.44C280.946 58.5748 280.692 57.7278 280.36 56.91C280.048 56.1327 279.652 55.3916 279.18 54.7C278.819 54.108 278.264 53.6592 277.61 53.43L257.5 47L250.74 68.16L265.8 73C266.413 73.191 267.073 73.1663 267.67 72.93C268.353 72.6728 269.004 72.3372 269.61 71.93C270.26 71.4824 270.86 70.9661 271.4 70.39C271.879 69.8905 272.321 69.3556 272.72 68.79L273.72 69.1L268.61 85.1L267.61 84.79C267.613 84.0972 267.563 83.4051 267.46 82.72C267.354 81.9382 267.163 81.1702 266.89 80.43C266.643 79.7237 266.307 79.0517 265.89 78.43C265.544 77.8936 265.026 77.4914 264.42 77.29L249.36 72.48L239.75 102.6C241.381 103.612 242.938 104.738 244.41 105.97C245.93 107.23 247.41 108.48 249 109.72C250.59 110.96 252.14 112.11 253.77 113.17C255.367 114.212 257.095 115.036 258.91 115.62C260.373 116.128 261.945 116.234 263.463 115.928C264.98 115.622 266.388 114.915 267.54 113.88L268.79 114.46C268.002 115.558 267.092 116.564 266.08 117.46C265.054 118.371 263.907 119.135 262.67 119.73C261.438 120.32 260.117 120.702 258.76 120.86C257.359 121.018 255.94 120.871 254.6 120.43C252.432 119.738 250.401 118.672 248.6 117.28C246.76 115.85 244.9 114.35 243.05 112.77C241.2 111.19 239.28 109.67 237.33 108.21C235.385 106.758 233.212 105.64 230.9 104.9C229.934 104.579 228.915 104.45 227.9 104.52C226.918 104.607 225.976 104.952 225.17 105.52L224.11 105.18C224.868 103.681 225.883 102.327 227.11 101.18C227.735 100.614 228.469 100.183 229.267 99.9131C230.065 99.643 230.91 99.5399 231.75 99.61Z" stroke="white" stroke-width="0.95" stroke-miterlimit="10"/>
<path d="M300.07 117.36L299.07 117.25L301.22 102.19L302.32 102.3L302.37 102.65C302.671 104.706 303.211 106.72 303.98 108.65C304.727 110.534 305.781 112.281 307.1 113.82C308.423 115.34 310.008 116.61 311.78 117.57C313.68 118.585 315.765 119.207 317.91 119.4C319.772 119.607 321.656 119.496 323.48 119.07C325.157 118.672 326.744 117.963 328.16 116.98C329.542 116.008 330.699 114.75 331.55 113.29C332.445 111.718 332.991 109.972 333.15 108.17C333.339 106.396 332.916 104.61 331.95 103.11C330.908 101.481 329.642 100.007 328.19 98.73C326.657 97.3604 325.018 96.1132 323.29 95C321.55 93.88 320.03 92.88 318.75 92C316.81 90.7667 314.927 89.4333 313.1 88C311.339 86.6477 309.727 85.1125 308.29 83.42C306.926 81.8208 305.85 79.9971 305.11 78.03C304.355 75.9448 304.099 73.7121 304.36 71.51C304.548 69.1033 305.505 66.8209 307.09 65C308.649 63.2634 310.576 61.8968 312.73 61C315.01 60.0645 317.416 59.4747 319.87 59.25C322.24 59.0056 324.63 59.0056 327 59.25C328.265 59.3665 329.518 59.5804 330.75 59.89C331.813 60.1453 332.856 60.4796 333.87 60.89C334.87 61.31 335.87 61.75 336.87 62.23L340.23 63.82L340.94 62.7L341.94 62.8L340.41 77.67L339.31 77.56L339.26 77.21C338.689 73.7122 337.221 70.422 335 67.66C332.9 65.24 329.67 63.8033 325.31 63.35C323.855 63.2005 322.385 63.2679 320.95 63.55C319.582 63.7918 318.27 64.2833 317.08 65C315.959 65.7087 314.99 66.6333 314.23 67.72C313.428 68.8842 312.948 70.2402 312.84 71.65C312.686 72.9468 312.891 74.2608 313.43 75.45C313.972 76.6233 314.686 77.7087 315.55 78.67C316.455 79.6758 317.461 80.5872 318.55 81.39C319.67 82.2233 320.71 82.9733 321.67 83.64C323.85 85.2867 326.16 86.9267 328.6 88.56C330.964 90.1286 333.18 91.9093 335.22 93.88C337.173 95.7633 338.778 97.9775 339.96 100.42C341.179 103.108 341.616 106.085 341.22 109.01C341 111.694 340.022 114.26 338.4 116.41C336.837 118.434 334.864 120.103 332.61 121.31C330.273 122.554 327.751 123.412 325.14 123.85C322.499 124.311 319.807 124.408 317.14 124.14C314.023 123.827 310.98 122.992 308.14 121.67C305.315 120.38 302.773 118.545 300.66 116.27L300.07 117.36Z" stroke="white" stroke-width="0.95" stroke-miterlimit="10"/>
<path d="M379.56 122.14L379.69 122C380.276 121.562 380.837 121.091 381.37 120.59C382.025 119.985 382.646 119.344 383.23 118.67C383.801 118.007 384.325 117.305 384.8 116.57C385.19 116.025 385.416 115.379 385.45 114.71L386 99.84C384.063 99.9395 382.126 99.654 380.3 99C379.398 98.6202 378.595 98.0402 377.95 97.3038C377.306 96.5675 376.837 95.6942 376.58 94.75C376.252 93.7786 376.04 92.7715 375.95 91.75L377 91.38C377.426 92.0435 378.001 92.5983 378.68 93C379.387 93.4272 380.167 93.7188 380.98 93.86C381.854 94.0194 382.742 94.0864 383.63 94.06C384.5 94.0378 385.367 93.971 386.23 93.86L387.77 49L430.33 99.38C430.722 99.896 431.238 100.305 431.83 100.57C433.114 101.178 434.502 101.534 435.92 101.62C436.489 101.657 437.061 101.657 437.63 101.62L438.3 102.47L421.38 108.47L420.83 107.67C421.447 107.118 421.933 106.435 422.25 105.67C422.55 104.926 422.55 104.094 422.25 103.35C421.573 101.15 420.368 99.1481 418.74 97.52C417.406 96.2544 415.777 95.3433 414 94.87C412.174 94.4291 410.282 94.3308 408.42 94.58C406.396 94.8303 404.391 95.2178 402.42 95.74C400.42 96.27 398.42 96.86 396.52 97.51C394.752 98.1193 392.949 98.6202 391.12 99.01L390.73 113.56C390.705 113.824 390.754 114.09 390.87 114.328C390.986 114.566 391.166 114.768 391.39 114.91C391.902 115.261 392.47 115.522 393.07 115.68C393.694 115.847 394.329 115.97 394.97 116.05L396.48 116.24L396.56 117.24L379.56 123.24V122.14ZM410.4 88.66L392.23 67L391.23 92.72C392.77 92.29 394.32 91.82 395.89 91.29C397.46 90.76 399.05 90.29 400.69 89.87C402.33 89.45 403.93 89.1 405.53 88.87C407.138 88.5912 408.774 88.5206 410.4 88.66Z" stroke="white" stroke-width="0.95" stroke-miterlimit="10"/>
<path d="M440.85 28.22L453.74 23.66L498.88 56.44L485.62 19C485.394 18.3905 484.972 17.8733 484.42 17.53C483.802 17.1231 483.128 16.8066 482.42 16.59C481.683 16.3546 480.927 16.184 480.16 16.08C479.445 15.9775 478.721 15.9507 478 16L477.69 15.12L493.69 9.44L494 10.33C493.432 10.7553 492.903 11.2305 492.42 11.75C491.901 12.3198 491.427 12.9282 491 13.57C490.57 14.1838 490.233 14.8577 490 15.57C489.79 16.1859 489.79 16.8541 490 17.47L510.41 75.2L452.93 33.92L469.35 80.31C469.576 80.9195 469.998 81.4367 470.55 81.78C471.165 82.1901 471.84 82.5037 472.55 82.71C473.315 82.9352 474.098 83.0958 474.89 83.19C475.596 83.2861 476.308 83.3229 477.02 83.3L477.33 84.19L461.33 89.86L461 89C461.589 88.5817 462.132 88.1024 462.62 87.57C463.158 86.9942 463.653 86.3792 464.1 85.73C464.53 85.1162 464.867 84.4423 465.1 83.73C465.31 83.1141 465.31 82.4459 465.1 81.83L448 33.66C447.678 32.6084 447.12 31.644 446.37 30.84C445.81 30.2519 445.127 29.7944 444.37 29.5C443.771 29.2662 443.141 29.1213 442.5 29.07C441.91 29.07 441.43 29 441.05 28.95L440.85 28.22Z" stroke="white" stroke-width="0.95" stroke-miterlimit="10"/>
<path d="M536.73 35.27C536.68 30.7753 537.449 26.309 539 22.09C540.468 18.0379 542.699 14.3041 545.57 11.09C548.579 7.7266 552.269 5.04128 556.394 3.21209C560.52 1.38289 564.987 0.451615 569.5 0.480003C574.073 0.383498 578.626 1.1118 582.94 2.63C586.834 4.00421 590.4 6.1735 593.41 9C596.37 11.8132 598.701 15.2213 600.25 19C601.916 23.1065 602.765 27.4985 602.75 31.93C602.809 36.4196 602.05 40.8823 600.51 45.1C599.042 49.1521 596.811 52.8859 593.94 56.1C590.94 59.4595 587.258 62.1414 583.141 63.9674C579.023 65.7934 574.564 66.7215 570.06 66.69C565.457 66.7902 560.874 66.0445 556.54 64.49C552.657 63.0979 549.095 60.9345 546.07 58.13C543.106 55.343 540.774 51.9537 539.23 48.19C537.565 44.0867 536.716 39.6982 536.73 35.27ZM546 35C546.023 38.4397 546.542 41.8582 547.54 45.15C548.469 48.3157 549.982 51.2798 552 53.89C553.981 56.4079 556.495 58.4568 559.36 59.89C562.595 61.4647 566.164 62.2267 569.76 62.11C573.341 62.1619 576.86 61.183 579.9 59.29C582.783 57.4485 585.238 55.0104 587.1 52.14C589.038 49.156 590.496 45.8862 591.42 42.45C592.371 39.052 592.845 35.5385 592.83 32.01C592.808 28.5571 592.289 25.1252 591.29 21.82C590.359 18.6792 588.857 15.7368 586.86 13.14C584.783 10.4636 582.097 8.32149 579.025 6.89181C575.954 5.46214 572.585 4.78615 569.2 4.92C565.62 4.86814 562.1 5.84704 559.06 7.74C556.177 9.58184 553.708 12.0031 551.81 14.85C549.836 17.8194 548.363 21.093 547.45 24.54C546.489 27.9436 546.001 31.4633 546 35Z" stroke="white" stroke-width="0.95" stroke-miterlimit="10"/>
<path d="M624.35 65.89L623.35 65.6L628.17 51.17L629.23 51.48V51.83C629.145 53.9225 629.313 56.0177 629.73 58.07C630.117 60.0614 630.84 61.9721 631.87 63.72C632.892 65.455 634.224 66.9872 635.8 68.24C639.004 70.7272 642.988 71.9959 647.04 71.82C648.769 71.735 650.466 71.321 652.04 70.6C653.577 69.9043 654.942 68.8803 656.04 67.6C657.203 66.2132 658.055 64.5936 658.54 62.85C659.042 61.1395 658.947 59.3092 658.27 57.66C657.537 55.8663 656.558 54.1834 655.36 52.66C654.094 51.0376 652.703 49.5164 651.2 48.11C649.693 46.69 648.383 45.4367 647.27 44.35C645.59 42.79 643.977 41.1467 642.43 39.42C640.943 37.7752 639.632 35.9786 638.52 34.06C637.47 32.2375 636.74 30.2488 636.36 28.18C635.991 25.993 636.138 23.7499 636.79 21.63C637.405 19.2625 638.77 17.1577 640.68 15.63C642.532 14.231 644.669 13.2578 646.94 12.78C649.352 12.2741 651.825 12.1258 654.28 12.34C656.65 12.5136 658.995 12.9291 661.28 13.58C662.505 13.9209 663.702 14.3555 664.86 14.88C665.854 15.343 666.813 15.8778 667.73 16.48C668.63 17.06 669.55 17.69 670.48 18.34C671.41 18.99 672.42 19.72 673.48 20.51L674.39 19.51L675.39 19.8L671.22 34.15L670.15 33.84V33.49C670.204 29.9195 669.325 26.3968 667.6 23.27C665.967 20.5233 663.047 18.5233 658.84 17.27C657.437 16.862 655.981 16.6632 654.52 16.68C653.13 16.6867 651.753 16.9512 650.46 17.46C649.23 17.9526 648.111 18.6871 647.17 19.62C646.168 20.6213 645.451 21.8705 645.09 23.24C644.708 24.4942 644.676 25.8293 645 27.1C645.317 28.3527 645.823 29.5497 646.5 30.65C647.221 31.8031 648.059 32.8787 649 33.86C649.95 34.86 650.84 35.8 651.66 36.63C653.507 38.63 655.483 40.66 657.59 42.72C659.64 44.6819 661.501 46.8313 663.15 49.14C664.73 51.3438 665.911 53.8079 666.64 56.42C667.354 59.2844 667.25 62.2917 666.34 65.1C665.645 67.7032 664.219 70.0527 662.23 71.87C660.333 73.5821 658.093 74.8706 655.66 75.65C653.138 76.462 650.499 76.8539 647.85 76.81C645.177 76.7909 642.519 76.4074 639.95 75.67C636.955 74.8085 634.123 73.4569 631.57 71.67C629.01 69.8933 626.828 67.6262 625.15 65L624.35 65.89Z" stroke="white" stroke-width="0.95" stroke-miterlimit="10"/>
</svg>
